#!OML:ASF H:\Terrain\Patient Classification 1\PLAYGROUND\JustinFriday\JustinFriday.ASF
:FULLY-SPECIFIED
:DEGREES
34
root 9.40114 17.9104 -17.7536 -0.426959 -4.17063 -3.68576
lowerback 7.36769 -0.431072 0.547418
upperback 1.02048 -0.414214 3.58523
thorax -3.05475 -0.196964 3.44673
lowerneck -8.45075 -2.92821 -7.18935
upperneck 20.6863 -2.57507 -1.40179
head 7.88364 -1.91396 0.495058
rclavicle -1.2275e-014 7.95139e-016
rhumerus -30.1177 -5.18136 -82.9446
rradius 26.506
rwrist -12.7489
rhand -17.7696 -24.8125
rfingers 7.12502
rthumb 8.49267 -54.6217
lclavicle -1.2275e-014 7.95139e-016
lhumerus 16.2918 -15.2984 69.0743
lradius 136.899
lwrist -1.20257
lhand -41.2479 -25.2338
lfingers 7.12502
lthumb -14.1705 4.26291
rfemur -3.79557 2.97995 23.0743
rtibia 26.4997
rfoot -14.6682 -11.6838
rtoes 4.99198
lfemur -1.86863 -0.080395 -13.1343
ltibia 23.4241
lfoot -16.2889 4.52477
ltoes -3.13656
35
root 9.40605 17.9109 -17.7791 -0.324379 -4.09667 -4.01949
lowerback 7.61071 -0.449949 0.909432
upperback 1.13945 -0.402291 3.73879
thorax -3.06947 -0.195115 3.40343
lowerneck -8.3403 -2.92646 -7.26061
upperneck 20.1378 -2.57518 -1.4393
head 7.68259 -1.9074 0.499899
rclavicle -7.15625e-015 2.46493e-014
rhumerus -30.041 -4.73276 -83.0727
rradius 27.2139
rwrist -12.6926
rhand -17.5263 -24.5426
rfingers 7.12502
rthumb 8.72747 -54.3422
lclavicle -7.15625e-015 2.46493e-014
lhumerus 15.361 -15.1269 69.7693
lradius 137.019
lwrist -1.56442
lhand -41.6518 -25.1069
lfingers 7.12502
lthumb -14.5597 4.36215
rfemur -3.99573 2.77457 23.397
rtibia 26.4783
rfoot -14.4034 -11.614
rtoes 4.9798
lfemur -2.21748 -0.119132 -12.7686
ltibia 23.6999
lfoot -16.2908 4.57821
ltoes -3.98028
36
root 9.40625 17.9084 -17.7948 -0.25431 -3.90754 -4.29213
lowerback 7.78991 -0.473313 1.20292
upperback 1.21974 -0.402206 3.85733
thorax -3.0876 -0.198115 3.36315
lowerneck -8.08029 -3.00623 -7.20459
upperneck 19.5021 -2.70144 -1.5966
head 7.42719 -1.95923 0.43614
rclavicle -2.88238e-015 1.11319e-014
rhumerus -30.2407 -3.84385 -83.4101
rradius 28.3643
rwrist -13.4209
rhand -18.3972 -24.7676
rfingers 7.12502
rthumb 7.88702 -54.6005
lclavicle -2.88238e-015 1.11319e-014
lhumerus 14.1028 -15.0327 70.5457
lradius 137.23
lwrist -1.79438
lhand -41.9258 -25.1257
lfingers 7.12502
lthumb -14.8237 4.32403
rfemur -4.09923 2.53324 23.6864
rtibia 26.4485
rfoot -14.1441 -11.6866
rtoes 4.15771
lfemur -2.5245 -0.18803 -12.4334
ltibia 23.9966
lfoot -16.4378 4.50203
ltoes -4.50271
37
root 9.40669 17.9114 -17.8154 -0.0245414 -3.75643 -4.42919
lowerback 7.94752 -0.48627 1.40329
upperback 1.18981 -0.39365 3.90379
thorax -3.20813 -0.195208 3.30055
lowerneck -7.81292 -3.03146 -7.25624
upperneck 18.9264 -2.77858 -1.53263
head 7.19469 -1.97743 0.467057
rclavicle -1.94312e-014 -1.59028e-015
rhumerus -30.398 -2.99606 -83.7801
rradius 29.3949
rwrist -14.1738
rhand -18.7554 -24.4528
rfingers 7.12502
rthumb 7.54124 -54.2984
lclavicle -1.94312e-014 -1.59028e-015
lhumerus 12.8645 -14.9142 71.2124
lradius 137.437
lwrist -1.89154
lhand -41.9204 -24.5838
lfingers 7.12502
lthumb -14.8185 4.86632
rfemur -4.44868 2.39054 23.8244
rtibia 26.4928
rfoot -14.1061 -11.6573
rtoes 4.35361
lfemur -3.00784 -0.284307 -12.2635
ltibia 24.2419
lfoot -16.4752 4.48263
ltoes -4.89873
38
root 9.40747 17.9202 -17.85 0.276272 -3.75955 -4.3937
lowerback 8.27648 -0.447536 1.41623
upperback 1.18091 -0.328232 3.88844
thorax -3.40421 -0.162147 3.27556
lowerneck -8.02003 -3.01717 -7.35322
upperneck 18.5469 -2.776 -1.30585
head 7.11161 -1.95338 0.556351
rclavicle 1.6847e-014 -1.74931e-014
rhumerus -30.3989 -2.27668 -84.171
rradius 30.4993
rwrist -14.5481
rhand -19.2296 -25.2483
rfingers 7.12502
rthumb 7.08355 -55.1097
lclavicle 1.6847e-014 -1.74931e-014
lhumerus 11.9132 -14.8854 71.7684
lradius 137.485
lwrist -1.51776
lhand -42.3027 -24.6317
lfingers 7.12502
lthumb -15.1867 4.79098
rfemur -4.9796 2.45714 23.7777
rtibia 26.5837
rfoot -14.1098 -11.5997
rtoes 5.2755
lfemur -3.60896 -0.380199 -12.3065
ltibia 24.4531
lfoot -16.393 4.59998
ltoes -5.04281
39
root 9.41131 17.9276 -17.8843 0.497781 -3.6516 -4.19099
lowerback 8.57752 -0.428328 1.25436
upperback 1.28808 -0.311785 3.8483
thorax -3.46087 -0.152427 3.32655
lowerneck -8.33121 -3.0672 -7.47955
upperneck 18.0492 -2.8589 -1.02282
head 7.01269 -1.96458 0.659923
rclavicle 1.39149e-015 -2.38542e-015
rhumerus -30.3303 -1.65067 -84.4761
rradius 31.6894
rwrist -15.0957
rhand -19.3814 -26.6327
rfingers 7.12502
rthumb 6.93702 -56.499
lclavicle 1.39149e-015 -2.38542e-015
lhumerus 10.9481 -14.7811 72.2236
lradius 137.474
lwrist -1.16472
lhand -43.1994 -25.4637
lfingers 7.12502
lthumb -16.0504 3.89156
rfemur -5.40354 2.3938 23.5264
rtibia 26.6554
rfoot -14.0839 -11.583
rtoes 5.43301
lfemur -4.15567 -0.493724 -12.5433
ltibia 24.6953
lfoot -16.3608 4.60725
ltoes -5.02943
